<svg width="99" height="90" viewBox="0 0 99 90" fill="none" xmlns="http://www.w3.org/2000/svg">
<path d="M0.55835 11.025C0.55835 5.32555 5.37995 0.699951 11.3208 0.699951H63.3437C69.2846 0.699951 74.1062 5.32555 74.1062 11.025V18.4H79.5244C81.2384 18.4 82.9186 18.8582 84.3764 19.7232C85.8343 20.5882 87.012 21.8257 87.7777 23.297L97.7283 42.3834C98.3694 43.6105 98.7042 44.9639 98.7062 46.3364V68.5499C98.7062 70.8971 97.7343 73.1482 96.0043 74.8078C94.2742 76.4675 91.9278 77.4 89.4812 77.4H79.9487C79.2429 80.7343 77.3573 83.732 74.6113 85.8853C71.8653 88.0385 68.4278 89.2147 64.8812 89.2147C61.3346 89.2147 57.8971 88.0385 55.1511 85.8853C52.4051 83.732 50.5195 80.7343 49.8137 77.4H43.0487C42.3429 80.7343 40.4573 83.732 37.7113 85.8853C34.9653 88.0385 31.5278 89.2147 27.9812 89.2147C24.4346 89.2147 20.9971 88.0385 18.2511 85.8853C15.5051 83.732 13.6195 80.7343 12.9137 77.4H11.3208C8.46646 77.4 5.72897 76.3121 3.71061 74.3758C1.69225 72.4395 0.55835 69.8133 0.55835 67.075V11.025ZM49.8076 71.5C50.211 69.6015 51.0004 67.7979 52.1305 66.1922C53.2607 64.5865 54.7096 63.2101 56.3944 62.1417C58.0792 61.0733 59.9668 60.3338 61.9496 59.9655C63.9324 59.5971 65.9713 59.6072 67.9501 59.995V11.025C67.9501 9.85137 67.4641 8.72585 66.5991 7.896C65.7341 7.06615 64.5609 6.59995 63.3376 6.59995H11.327C10.1037 6.59995 8.93048 7.06615 8.06547 7.896C7.20046 8.72585 6.7145 9.85137 6.7145 11.025V67.075C6.7145 69.5176 8.7809 71.5 11.327 71.5H12.9198C13.6256 68.1656 15.5112 65.1679 18.2573 63.0146C21.0033 60.8614 24.4408 59.6852 27.9874 59.6852C31.5339 59.6852 34.9714 60.8614 37.7174 63.0146C40.4635 65.1679 42.3491 68.1656 43.0548 71.5H49.8199H49.8076ZM74.1001 62.65C77.0521 64.7739 79.1861 67.901 79.9426 71.5H89.4751C90.2906 71.5 91.0727 71.1892 91.6494 70.6359C92.2261 70.0827 92.55 69.3323 92.55 68.5499V47.9H74.1001V62.65ZM74.1001 42H90.6558L82.2795 25.9284C82.0239 25.439 81.6314 25.0275 81.1459 24.7399C80.6604 24.4523 80.1011 24.3 79.5305 24.3H74.1001V42ZM27.9751 65.6C25.5284 65.6 23.182 66.5324 21.452 68.1921C19.722 69.8518 18.75 72.1028 18.75 74.45C18.75 76.7971 19.722 79.0481 21.452 80.7078C23.182 82.3675 25.5284 83.2999 27.9751 83.2999C30.4217 83.2999 32.7681 82.3675 34.4981 80.7078C36.2281 79.0481 37.2001 76.7971 37.2001 74.45C37.2001 72.1028 36.2281 69.8518 34.4981 68.1921C32.7681 66.5324 30.4217 65.6 27.9751 65.6ZM55.6501 74.45C55.6501 75.6122 55.8887 76.763 56.3523 77.8367C56.8159 78.9104 57.4954 79.886 58.352 80.7078C59.2086 81.5296 60.2256 82.1815 61.3448 82.6263C62.464 83.071 63.6636 83.2999 64.8751 83.2999C66.0865 83.2999 67.2861 83.071 68.4053 82.6263C69.5245 82.1815 70.5415 81.5296 71.3981 80.7078C72.2547 79.886 72.9342 78.9104 73.3978 77.8367C73.8614 76.763 74.1001 75.6122 74.1001 74.45C74.1001 72.1028 73.1281 69.8518 71.3981 68.1921C69.6681 66.5324 67.3217 65.6 64.8751 65.6C62.4284 65.6 60.082 66.5324 58.352 68.1921C56.622 69.8518 55.6501 72.1028 55.6501 74.45Z" fill="#0F0F0F"/>
</svg>
