<svg width="100" height="100" xmlns="http://www.w3.org/2000/svg" fill="none">
 <g>
  <path id="svg_1" stroke-miterlimit="10" stroke-width="6" stroke="#141414" d="m17.10717,30.54413c6.1599,0 11.1534,-5.2963 11.1534,-11.8295c0,-6.53326 -4.9935,-11.8295 -11.1534,-11.8295c-6.15982,0 -11.15337,5.29624 -11.15337,11.8295c0,6.5332 4.99355,11.8295 11.15337,11.8295z"/>
  <path id="svg_3" stroke-linecap="square" stroke-miterlimit="10" stroke-width="6" stroke="#141414" d="m45.27197,63.97162c-15.6148,-8.4771 -15.6148,-23.65902 -28.9989,-23.65902c-3.5496,0 -6.9539,1.49558 -9.46394,4.15773c-2.51001,2.66219 -3.92011,6.27279 -3.92011,10.03769l0,42.5861l26.76815,0l0,-28.3907"/>
  <path id="svg_4" stroke-linecap="square" stroke-miterlimit="10" stroke-width="6" stroke="#141414" d="m54.81601,63.91531c15.61476,-8.4771 15.61476,-23.65902 28.99886,-23.65902c3.5497,0 6.954,1.49558 9.464,4.15773c2.51,2.66219 3.9201,6.27279 3.9201,10.03769l0,42.5861l-26.7682,0l0,-28.3907"/>
  <path id="svg_5" stroke-miterlimit="10" stroke-width="6" stroke="#141414" d="m81.77962,29.65449c6.1599,0 11.1534,-5.2963 11.1534,-11.8295c0,-6.53326 -4.9935,-11.8295 -11.1534,-11.8295c-6.15985,0 -11.1534,5.29624 -11.1534,11.8295c0,6.5332 4.99355,11.8295 11.1534,11.8295z"/>
 </g>
</svg>