<svg width="105" height="99" viewBox="0 0 105 99" fill="none" xmlns="http://www.w3.org/2000/svg">
<path d="M3 3H13.9056L16.0867 13.2522M24.8111 54.2611H79.3389L101.15 13.2522H16.0867M24.8111 54.2611L16.0867 13.2522M24.8111 54.2611L12.3079 66.0153C8.87264 69.2447 11.3046 74.7656 16.163 74.7656H79.3389M79.3389 74.7656C76.4466 74.7656 73.6727 75.8457 71.6275 77.7684C69.5823 79.691 68.4333 82.2987 68.4333 85.0178C68.4333 87.7368 69.5823 90.3445 71.6275 92.2672C73.6727 94.1899 76.4466 95.27 79.3389 95.27C82.2312 95.27 85.0051 94.1899 87.0503 92.2672C89.0955 90.3445 90.2444 87.7368 90.2444 85.0178C90.2444 82.2987 89.0955 79.691 87.0503 77.7684C85.0051 75.8457 82.2312 74.7656 79.3389 74.7656ZM35.7167 85.0178C35.7167 87.7368 34.5677 90.3445 32.5225 92.2672C30.4773 94.1899 27.7034 95.27 24.8111 95.27C21.9188 95.27 19.1449 94.1899 17.0997 92.2672C15.0545 90.3445 13.9056 87.7368 13.9056 85.0178C13.9056 82.2987 15.0545 79.691 17.0997 77.7684C19.1449 75.8457 21.9188 74.7656 24.8111 74.7656C27.7034 74.7656 30.4773 75.8457 32.5225 77.7684C34.5677 79.691 35.7167 82.2987 35.7167 85.0178V85.0178Z" stroke="#0F0F0F" stroke-width="6" stroke-linecap="round" stroke-linejoin="round"/>
</svg>
