<svg width="100" height="100" viewBox="0 0 100 100" fill="none" xmlns="http://www.w3.org/2000/svg">
<path d="M14.5396 26.659C20.6995 26.659 25.693 21.3627 25.693 14.8295C25.693 8.29624 20.6995 3 14.5396 3C8.37978 3 3.38623 8.29624 3.38623 14.8295C3.38623 21.3627 8.37978 26.659 14.5396 26.659Z" stroke="#141414" stroke-width="6" stroke-miterlimit="10"/><path d="M46.308 27.1473C30.6932 18.6702 30.6932 3.48828 17.3091 3.48828C13.7595 3.48828 10.3552 4.98386 7.84516 7.64601C5.33515 10.3082 3.92505 13.9188 3.92505 17.6837V60.2698H30.6932V31.8791" stroke="#141414" stroke-width="6" stroke-miterlimit="10" stroke-linecap="square"/>
    <path d="M46.308 27.1473C30.6932 18.6702 30.6932 3.48828 17.3091 3.48828C13.7595 3.48828 10.3552 4.98386 7.84516 7.64601C5.33515 10.3082 3.92505 13.9188 3.92505 17.6837V60.2698H30.6932V31.8791" stroke="#141414" stroke-width="6" stroke-miterlimit="10" stroke-linecap="square"/>
    <path d="M4.69214 27.1473C20.3069 18.6702 20.3069 3.48828 33.691 3.48828C37.2407 3.48828 40.645 4.98386 43.155 7.64601C45.665 10.3082 47.0751 13.9188 47.0751 17.6837V60.2698H20.3069V31.8791" stroke="#141414" stroke-width="6" stroke-miterlimit="10" stroke-linecap="square"/>
    <path d="M14.4598 26.659C20.6197 26.659 25.6132 21.3627 25.6132 14.8295C25.6132 8.29624 20.6197 3 14.4598 3C8.29995 3 3.3064 8.29624 3.3064 14.8295C3.3064 21.3627 8.29995 26.659 14.4598 26.659Z" stroke="#141414" stroke-width="6" stroke-miterlimit="10"/>

</svg>
